<svg width="512" height="512" viewBox="0 0 512 512" fill="none" xmlns="http://www.w3.org/2000/svg">
  <rect width="512" height="512" rx="88" fill="#A88B65"/>
  <g transform="translate(152.2, -102.6) scale(11.44)">
    <path d="M17.657 16.4471C16.3288 17.6897 15.0213 18.9425 13.7189 20.2057C12.0973 18.7105 10.6405 17.9526 9.31237 17.9526C8.62771 17.9526 8.01513 18.0815 7.62389 18.3548C7.23266 18.6589 7.02675 19.0302 7.02675 19.4323C7.02675 19.7468 7.17089 20.0562 7.43857 20.3346C7.66508 20.6078 8.33944 20.9997 9.31237 21.4586C10.0845 21.8401 10.8773 22.1907 11.6649 22.5722C14.1462 23.6962 15.8295 24.882 16.7664 26.073C17.693 27.2743 18.1563 28.6973 18.1563 30.2905C18.1666 32.4456 17.3378 34.2347 15.6545 35.6732C13.9814 37.0704 11.737 37.818 8.95203 37.818C5.24046 37.818 2.229 36.4362 0 33.6985C1.29725 32.3477 2.63567 31.0072 3.9741 29.6202C4.70509 30.4813 5.59566 31.1464 6.58404 31.6465C7.60845 32.1363 8.49902 32.4095 9.30208 32.4095C10.1412 32.4095 10.8155 32.2239 11.3149 31.8321C11.8502 31.4609 12.1179 31.0175 12.1179 30.4813C12.1179 29.579 11.1707 28.6819 9.30208 27.7899C8.57109 27.429 7.85554 27.0939 7.1503 26.7536C3.01661 24.7892 0.957491 22.3299 0.957491 19.3756C0.957491 17.468 1.75025 15.8439 3.274 14.5033C4.82864 13.1422 6.84143 12.4668 9.27119 12.4668C10.9133 12.4668 12.4783 12.8071 13.93 13.4928C15.4022 14.1888 16.6634 15.1736 17.657 16.4471Z" fill="#FAF7F2"/>
  </g>
  <line x1="108" y1="352" x2="404" y2="352" stroke="#FAF7F2" stroke-width="1" opacity="0.3"/>
  <text x="256" y="400" text-anchor="middle" font-family="'Inter','Helvetica Neue',Arial,sans-serif" font-size="33" font-weight="500" letter-spacing="5" fill="#FAF7F2" opacity="0.82">CONSULTA</text>
  <text x="256" y="450" text-anchor="middle" font-family="'Inter','Helvetica Neue',Arial,sans-serif" font-size="33" font-weight="500" letter-spacing="5" fill="#FAF7F2" opacity="0.82">DE PREÇO</text>
</svg>
