<svg width="260" height="46" viewBox="0 0 260 46" fill="none" xmlns="http://www.w3.org/2000/svg">
<path d="M17.657 16.4471C16.3288 17.6897 15.0213 18.9425 13.7189 20.2057C12.0973 18.7105 10.6405 17.9526 9.31237 17.9526C8.62771 17.9526 8.01513 18.0815 7.62389 18.3548C7.23266 18.6589 7.02675 19.0302 7.02675 19.4323C7.02675 19.7468 7.17089 20.0562 7.43857 20.3346C7.66508 20.6078 8.33944 20.9997 9.31237 21.4586C10.0845 21.8401 10.8773 22.1907 11.6649 22.5722C14.1462 23.6962 15.8295 24.882 16.7664 26.073C17.693 27.2743 18.1563 28.6973 18.1563 30.2905C18.1666 32.4456 17.3378 34.2347 15.6545 35.6732C13.9814 37.0704 11.737 37.818 8.95203 37.818C5.24046 37.818 2.229 36.4362 0 33.6985C1.29725 32.3477 2.63567 31.0072 3.9741 29.6202C4.70509 30.4813 5.59566 31.1464 6.58404 31.6465C7.60845 32.1363 8.49902 32.4095 9.30208 32.4095C10.1412 32.4095 10.8155 32.2239 11.3149 31.8321C11.8502 31.4609 12.1179 31.0175 12.1179 30.4813C12.1179 29.579 11.1707 28.6819 9.30208 27.7899C8.57109 27.429 7.85554 27.0939 7.1503 26.7536C3.01661 24.7892 0.957491 22.3299 0.957491 19.3756C0.957491 17.468 1.75025 15.8439 3.274 14.5033C4.82864 13.1422 6.84143 12.4668 9.27119 12.4668C10.9133 12.4668 12.4783 12.8071 13.93 13.4928C15.4022 14.1888 16.6634 15.1736 17.657 16.4471Z" fill="currentColor"/>
<path d="M31.6178 12.4668C34.0218 12.4668 36.2766 13.0339 38.3975 14.1888C40.5081 15.3231 42.1708 16.8596 43.3702 18.8188C44.5697 20.7471 45.1411 22.8609 45.1411 25.1192C45.1411 27.4187 44.5748 29.512 43.3342 31.5176C42.0936 33.4923 40.4823 35.0596 38.4181 36.1578C36.3486 37.2818 34.0785 37.8386 31.5406 37.8386C27.9165 37.8386 24.7815 36.6064 22.1819 34.1213C19.6131 31.6929 18.3313 28.6922 18.3313 25.1759C18.3313 21.407 19.7985 18.2877 22.7276 15.7717C25.3169 13.5598 28.2409 12.4668 31.6178 12.4668ZM31.7002 18.1485C29.7183 18.1485 28.0555 18.8136 26.748 20.1129C25.4199 21.4225 24.7455 23.1187 24.7455 25.1347C24.7455 27.2486 25.3993 28.95 26.6708 30.2338C27.968 31.5537 29.6102 32.1827 31.6333 32.1827C33.6152 32.1827 35.2985 31.5073 36.6369 30.208C37.9959 28.9087 38.6806 27.2022 38.6806 25.1398C38.6806 23.0775 38.0062 21.4018 36.7193 20.118C35.3809 18.8188 33.7284 18.1485 31.7002 18.1485Z" fill="currentColor"/>
<path d="M46.7729 13.07H53.1716V15.5345C54.6285 14.3692 55.9669 13.5855 57.1097 13.1576C58.3091 12.6884 59.524 12.4616 60.7441 12.4616C63.2665 12.4616 65.4337 13.2917 67.2045 14.957C68.7077 16.3955 69.4232 18.4991 69.4232 21.2677C69.4232 26.5731 69.4026 31.9042 69.4026 37.2096H63.0606C63.0606 33.6778 63.0709 30.1615 63.1069 26.6298C63.1172 23.7528 62.9525 21.8452 62.6745 20.8862C62.3811 19.9375 61.9332 19.2209 61.2382 18.7311C60.533 18.231 59.7145 17.9886 58.7261 17.9886C57.4186 17.9886 56.2861 18.4217 55.3543 19.2209C54.438 20.0355 53.7533 21.1698 53.4187 22.6237C53.2128 23.3765 53.1665 25.0109 53.1459 27.5269C53.1253 30.7545 53.0996 33.9872 53.0996 37.2147H46.7214C46.7729 29.1716 46.7729 21.1337 46.7729 13.07Z" fill="currentColor"/>
<path d="M72.0898 3.77405H78.4577V15.5242C79.652 14.4982 80.9698 13.7351 82.2207 13.2144C83.4716 12.7039 84.7534 12.4513 86.0713 12.4513C88.5937 12.4513 90.73 13.2814 92.4494 14.9467C93.9422 16.3749 94.6887 18.4785 94.6887 21.2575V37.1993H88.3878V26.6247C88.3878 23.8354 88.2333 21.9483 87.9554 20.9481C87.6825 19.9685 87.1626 19.2054 86.5191 18.7156C85.8139 18.2155 85.0057 17.9938 84.007 17.9938C82.6789 17.9938 81.5824 18.396 80.6764 19.2158C79.7292 20.0097 79.0754 21.1337 78.7151 22.5413C78.5297 23.2476 78.4628 24.9078 78.4628 27.5012V37.189H72.0332C72.0332 31.6104 72.0898 26.0627 72.0898 20.5047V3.77405Z" fill="currentColor"/>
<path d="M109.278 12.4668C111.692 12.4668 113.967 13.0649 116.078 14.1888C118.178 15.3231 119.831 16.8802 121.004 18.8188C122.178 20.7574 122.791 22.8609 122.791 25.1192C122.791 27.4187 122.183 29.5429 121.015 31.5176C119.841 33.4923 118.209 35.039 116.129 36.1578C114.086 37.2612 111.79 37.8386 109.298 37.8386C105.695 37.8386 102.508 36.5961 99.9498 34.1213C97.3502 31.6826 96.0426 28.6922 96.0426 25.1759C96.0426 21.407 97.5097 18.2671 100.408 15.7717C103.013 13.5598 105.962 12.4668 109.278 12.4668ZM109.365 18.1485C107.394 18.1485 105.72 18.8136 104.423 20.1129C103.095 21.4225 102.467 23.1187 102.467 25.1347C102.467 27.2486 103.09 28.9294 104.423 30.2338C105.705 31.5279 107.363 32.1827 109.365 32.1827C111.347 32.1827 113.041 31.5588 114.379 30.208C115.718 28.9139 116.335 27.2022 116.335 25.1398C116.335 23.0775 115.681 21.3709 114.389 20.118C113.123 18.8188 111.424 18.1485 109.365 18.1485Z" fill="currentColor"/>
<path d="M148.133 6.61493C148.133 16.8389 148.133 27.0165 148.154 37.256H145.194V33.451C143.943 34.8895 142.507 36.0031 140.931 36.7198C139.366 37.4726 137.621 37.8335 135.784 37.8335C132.479 37.8335 129.606 36.6786 127.285 34.4358C124.947 32.1569 123.707 29.3676 123.707 26.1401C123.707 22.9589 124.937 20.2469 127.285 17.9784C129.678 15.7356 132.484 14.5755 135.856 14.5755C137.76 14.5755 139.469 14.9777 141.055 15.7407C142.599 16.5141 143.948 17.6896 145.127 19.2261V6.61493H148.133ZM136.056 17.3287C134.358 17.3287 132.844 17.7 131.408 18.4836C129.972 19.257 128.86 20.3346 128.016 21.7628C127.197 23.16 126.754 24.681 126.754 26.2071C126.754 27.7848 127.192 29.3006 128.062 30.6875C128.901 32.126 130.054 33.2293 131.48 34.0027C132.906 34.807 134.44 35.2143 136.051 35.2143C137.714 35.2143 139.274 34.8018 140.798 34.013C142.234 33.2396 143.397 32.1621 144.18 30.8319C144.942 29.481 145.364 27.9858 145.364 26.2896C145.364 23.7374 144.463 21.5823 142.676 19.8706C140.89 18.1898 138.677 17.3287 136.056 17.3287Z" fill="currentColor"/>
<path d="M161.487 14.5497C165.075 14.5497 168.024 15.8026 170.444 18.2774C172.596 20.5202 173.687 23.1806 173.687 26.2638C173.687 29.3573 172.534 32.0486 170.279 34.3481C168.024 36.6786 165.08 37.8335 161.497 37.8335C157.909 37.8335 154.969 36.6786 152.715 34.3481C150.388 32.0486 149.266 29.3573 149.266 26.2638C149.266 23.1909 150.367 20.5563 152.529 18.2774C154.866 15.8026 157.842 14.5497 161.487 14.5497ZM161.487 17.3803C158.974 17.3803 156.828 18.231 155.036 19.984C153.25 21.7267 152.349 23.8405 152.349 26.305C152.349 27.9188 152.72 29.4088 153.6 30.7958C154.413 32.1775 155.484 33.2396 156.91 33.9769C158.29 34.74 159.793 35.1009 161.481 35.1009C163.17 35.1009 164.688 34.74 166.053 33.9769C167.479 33.2345 168.565 32.1672 169.363 30.7958C170.176 29.4037 170.603 27.9188 170.603 26.305C170.603 23.8405 169.702 21.7267 167.875 19.984C166.063 18.231 163.968 17.3803 161.487 17.3803Z" fill="currentColor"/>
<path d="M186.453 17.5556C185.779 18.1794 185.223 18.8085 184.585 19.4529C182.912 17.9732 181.373 17.2411 179.818 17.2411C178.86 17.2411 178.057 17.5659 177.337 18.1588C176.631 18.7672 176.281 19.489 176.281 20.283C176.281 21.0048 176.554 21.6906 177.162 22.3299C177.718 22.995 178.958 23.789 180.75 24.6861C182.999 25.774 184.523 26.8412 185.331 27.8363C186.134 28.8726 186.515 30.0378 186.515 31.332C186.515 33.1313 185.861 34.6575 184.513 35.931C183.154 37.1838 181.465 37.8283 179.422 37.8283C178.062 37.8283 176.812 37.5447 175.571 36.9879C174.387 36.4517 173.321 35.668 172.503 34.6987C173.136 34.0233 173.754 33.3376 174.418 32.6415C175.952 34.2966 177.563 35.0957 179.303 35.0957C180.497 35.0957 181.542 34.7348 182.351 34.0181C183.231 33.286 183.668 32.425 183.668 31.4145C183.668 30.5998 183.344 29.8883 182.798 29.2593C182.232 28.6355 180.981 27.8518 179.035 26.9083C176.894 25.8823 175.458 24.8511 174.727 23.8354C173.944 22.8455 173.574 21.7215 173.574 20.4222C173.574 18.7569 174.196 17.3287 175.38 16.2512C176.621 15.1169 178.145 14.5497 179.993 14.5497C182.145 14.5497 184.322 15.5758 186.453 17.5556Z" fill="currentColor"/>
<path d="M195.616 13.0701V15.7614C196.749 14.6632 198.021 13.8331 199.338 13.2866C200.708 12.7195 202.113 12.4565 203.678 12.4565C206.988 12.4565 209.86 13.6424 212.187 16.0295C214.535 18.427 215.683 21.4586 215.683 25.1811C215.683 28.7747 214.473 31.7754 212.089 34.1935C209.675 36.6116 206.813 37.8129 203.503 37.8129C202 37.8129 200.641 37.5603 199.39 37.0602C198.129 36.5703 196.878 35.7609 195.616 34.6318V45.9952H189.254C189.254 40.5146 189.254 35.0339 189.243 29.5275C189.202 24.0365 189.243 18.5662 189.243 13.0495L195.616 13.0701ZM202.329 18.0609C200.286 18.0609 198.654 18.7157 197.269 20.0201C195.972 21.273 195.266 23.0054 195.266 25.0883C195.266 27.2435 195.951 28.9449 197.31 30.2957C198.659 31.6053 200.327 32.2807 202.34 32.2807C204.296 32.2807 205.928 31.595 207.266 30.2442C208.604 28.8933 209.31 27.1919 209.31 25.1089C209.31 23.0518 208.594 21.3607 207.266 20.0614C205.994 18.726 204.321 18.0609 202.329 18.0609Z" fill="currentColor"/>
<path d="M242.585 26.8876H222.03C222.313 28.5994 223.152 29.9502 224.465 30.9659C225.716 32.0022 227.358 32.492 229.391 32.492C231.775 32.492 233.808 31.7187 235.548 30.1152C237.345 30.9298 239.141 31.729 240.953 32.5436C239.594 34.3327 237.993 35.6732 236.109 36.5342C234.215 37.3952 231.996 37.8283 229.417 37.8283C225.391 37.8283 222.169 36.627 219.657 34.2553C217.124 31.8475 215.873 28.8726 215.873 25.2842C215.873 21.6029 217.103 18.5507 219.636 16.1326C222.138 13.7042 225.283 12.4926 229.036 12.4926C233.072 12.4926 236.325 13.7042 238.863 16.1326C241.386 18.5507 242.662 21.7576 242.652 25.7534C242.642 26.1246 242.585 26.5267 242.585 26.8876ZM236.171 22.134C235.733 20.7831 234.899 19.7056 233.638 18.8549C232.418 18.0145 230.972 17.602 229.319 17.602C227.533 17.602 225.989 18.0815 224.65 19.0095C223.832 19.6282 223.049 20.6542 222.303 22.1391L236.171 22.134ZM230.282 0H237.865C234.971 2.88726 232.089 5.80546 229.237 8.68241H224.722C226.519 5.80031 228.387 2.89757 230.282 0Z" fill="currentColor"/>
<path d="M259.485 16.478C258.167 17.7205 256.829 18.9425 255.537 20.1953C253.926 18.7156 252.469 17.9422 251.151 17.9422C250.379 17.9422 249.812 18.0814 249.421 18.3805C249.009 18.664 248.824 19.0146 248.824 19.4374C248.824 19.7622 248.943 20.0922 249.174 20.3294C249.437 20.6026 250.101 20.9842 251.135 21.4637C251.887 21.8142 252.68 22.17 253.473 22.5515C255.964 23.6858 257.663 24.851 258.574 26.0627C259.475 27.264 260 28.687 260 30.2801C260 32.4353 259.109 34.2346 257.452 35.6628C255.799 37.06 253.545 37.8076 250.77 37.8076C247.028 37.8076 244.088 36.4259 241.818 33.6881C243.146 32.3373 244.464 30.9968 245.792 29.615C246.523 30.4554 247.403 31.1308 248.412 31.6206C249.437 32.1208 250.327 32.3837 251.079 32.3837C251.959 32.3837 252.613 32.2084 253.138 31.8062C253.673 31.435 253.91 30.9916 253.91 30.4554C253.91 29.5531 252.984 28.656 251.135 27.7641C250.415 27.4032 249.643 27.068 248.927 26.7278C244.804 24.7634 242.745 22.3041 242.745 19.3704C242.745 17.4524 243.517 15.8283 245.051 14.4878C246.626 13.137 248.608 12.4616 251.069 12.4616C252.742 12.4616 254.291 12.8122 255.748 13.4876C257.23 14.1888 258.487 15.1735 259.485 16.478Z" fill="currentColor"/>
</svg>
